<svg width="24" height="24" viewBox="0 0 24 24" fill="none" xmlns="http://www.w3.org/2000/svg">
<circle cx="12" cy="12" r="12" fill="white"/>
<path d="M8.80143 20C8.3613 20 7.98465 19.8435 7.67149 19.5304C7.3578 19.2168 7.20095 18.84 7.20095 18.4C7.20095 17.96 7.3578 17.5832 7.67149 17.2696C7.98465 16.9565 8.3613 16.8 8.80143 16.8C9.24156 16.8 9.61821 16.9565 9.93137 17.2696C10.2451 17.5832 10.4019 17.96 10.4019 18.4C10.4019 18.84 10.2451 19.2168 9.93137 19.5304C9.61821 19.8435 9.24156 20 8.80143 20ZM16.8038 20C16.3637 20 15.987 19.8435 15.6739 19.5304C15.3602 19.2168 15.2033 18.84 15.2033 18.4C15.2033 17.96 15.3602 17.5832 15.6739 17.2696C15.987 16.9565 16.3637 16.8 16.8038 16.8C17.2439 16.8 17.6209 16.9565 17.9345 17.2696C18.2477 17.5832 18.4043 17.96 18.4043 18.4C18.4043 18.84 18.2477 19.2168 17.9345 19.5304C17.6209 19.8435 17.2439 20 16.8038 20ZM8.80143 16C8.20125 16 7.74778 15.7365 7.44102 15.2096C7.13427 14.6832 7.12093 14.16 7.40101 13.64L8.48133 11.68L5.60048 5.6H4.78023C4.5535 5.6 4.36678 5.5232 4.22007 5.3696C4.07336 5.21653 4 5.02667 4 4.8C4 4.57333 4.07682 4.3832 4.23047 4.2296C4.38358 4.07653 4.5735 4 4.80024 4H6.10063C6.24734 4 6.38738 4.04 6.52075 4.12C6.65412 4.2 6.75415 4.31333 6.82084 4.46L7.361 5.6H19.1645C19.5246 5.6 19.7714 5.73333 19.9047 6C20.0381 6.26667 20.0314 6.54667 19.8847 6.84L17.0439 11.96C16.8972 12.2267 16.7038 12.4333 16.4637 12.58C16.2236 12.7267 15.9502 12.8 15.6435 12.8H9.68169L8.80143 14.4H17.6241C17.8508 14.4 18.0375 14.4765 18.1842 14.6296C18.3309 14.7832 18.4043 14.9733 18.4043 15.2C18.4043 15.4267 18.3275 15.6165 18.1738 15.7696C18.0207 15.9232 17.8308 16 17.604 16H8.80143Z" fill="black"/>
</svg>
