<svg width="120" height="120" viewBox="0 0 120 120" fill="none" xmlns="http://www.w3.org/2000/svg">
<circle cx="60" cy="60" r="60" fill="white"/>
<path d="M90 43.2515L89.953 43.1465C89.908 42.7935 89.807 42.5725 89.618 42.4235C88.405 39.8585 84.385 31.8605 78.98 26.3765C77.484 24.8575 73.158 28.2905 71.152 30.3455C69.146 32.4005 70.123 35.8745 71.334 34.4795C72.832 32.7545 76.602 27.3425 78 28.0275C79.381 28.7035 82.977 33.9415 86.988 41.9325C85.498 41.8295 82.846 41.7315 79.746 41.7315C75.248 41.7315 71.66 42.3755 68.125 42.9965C64.619 43.6105 62.283 44.0435 60 44.0435C57.715 44.0435 55.381 43.6105 51.875 42.9965C48.338 42.3755 44.752 41.7315 40.254 41.7315C37.154 41.7315 34.503 41.8295 33.012 41.9315C37.022 33.9415 40.619 28.7025 42 28.0275C43.398 27.3425 47.166 32.7545 48.664 34.4795C49.875 35.8755 50.853 32.4005 48.846 30.3455C46.84 28.2905 42.516 24.8575 41.018 26.3765C35.615 31.8595 31.596 39.8585 30.383 42.4235C30.194 42.5715 30.092 42.7945 30.047 43.1465L30 43.2515L30.031 43.2405C30 43.5645 30 43.9875 30 44.5505C30 47.8885 30.383 48.4695 30.545 48.6675C30.764 48.9375 31.379 49.3105 31.578 49.5955C31.871 50.0135 31.976 51.3045 32.117 52.0495C33.234 57.9535 34.775 59.9995 43.566 59.9995C51.75 59.9995 55.783 57.5695 57.322 51.5675C57.437 51.1195 57.64 49.2005 57.765 48.7545C57.814 48.5785 57.976 48.3155 58.402 48.2495C58.97 48.1955 59.488 48.1705 60 48.1705C60.512 48.1705 61.027 48.1955 61.598 48.2495C62.022 48.3145 62.186 48.5785 62.235 48.7545C62.358 49.2005 62.563 51.1195 62.678 51.5675C64.217 57.5695 68.25 59.9995 76.434 59.9995C85.225 59.9995 86.766 57.9535 87.881 52.0495C88.022 51.3045 88.129 50.0135 88.422 49.5955C88.621 49.3105 89.235 48.9375 89.455 48.6675C89.617 48.4695 90 47.8885 90 44.5505C90 43.9875 90 43.5655 89.969 43.2405L90 43.2515ZM55.822 49.2775C55.6916 49.8684 55.5475 50.4562 55.39 51.0405C54.288 55.1985 51.855 57.9705 43.566 57.9705C35.533 57.9705 34.82 56.2945 34.064 51.5875C33.783 49.8305 33.177 47.8865 33.869 46.2535C34.254 45.3455 34.916 44.0705 37.24 44.0705C38.937 44.0705 47.334 44.1815 52.496 45.2935C54.002 45.6205 56.453 46.1865 55.822 49.2775ZM85.934 51.5875C85.178 56.2945 84.467 57.9705 76.434 57.9705C68.143 57.9705 65.711 55.1995 64.61 51.0405C64.4537 50.4558 64.309 49.868 64.176 49.2775C63.547 46.1855 65.998 45.6205 67.504 45.2935C72.666 44.1825 81.063 44.0705 82.76 44.0705C85.082 44.0705 85.746 45.3445 86.129 46.2535C86.822 47.8865 86.217 49.8305 85.934 51.5875Z" fill="#740BBA"/>
<path d="M24.9363 81.698C25.0296 81.8847 25.1743 82.062 25.3703 82.23C25.5663 82.398 25.7996 82.5473 26.0703 82.678C26.3316 82.8087 26.621 82.916 26.9383 83C27.265 83.0747 27.6056 83.112 27.9603 83.112C28.3523 83.112 28.735 83.0513 29.1083 82.93C29.4816 82.7993 29.813 82.6173 30.1023 82.384C30.401 82.1413 30.653 81.852 30.8583 81.516C31.0636 81.18 31.1943 80.802 31.2503 80.382C31.3156 79.906 31.3063 79.5093 31.2223 79.192C31.1383 78.8653 31.003 78.5947 30.8163 78.38C30.6296 78.156 30.4103 77.9787 30.1583 77.848C29.9063 77.708 29.645 77.5867 29.3743 77.484C29.0943 77.3907 28.8236 77.302 28.5623 77.218C28.301 77.134 28.0723 77.036 27.8763 76.924C27.6803 76.8027 27.5263 76.658 27.4143 76.49C27.3116 76.3127 27.279 76.084 27.3163 75.804C27.3443 75.58 27.405 75.37 27.4983 75.174C27.601 74.978 27.7363 74.8053 27.9043 74.656C28.0536 74.5347 28.231 74.4367 28.4363 74.362C28.6416 74.2873 28.8703 74.25 29.1223 74.25C29.4023 74.25 29.6543 74.278 29.8783 74.334C30.1116 74.39 30.3123 74.4553 30.4803 74.53L30.3543 75.356H31.4603L31.6563 73.984C31.4603 73.7973 31.255 73.648 31.0403 73.536C30.8256 73.424 30.6156 73.34 30.4103 73.284C30.205 73.228 30.0043 73.1907 29.8083 73.172C29.6216 73.1533 29.4443 73.144 29.2763 73.144C28.763 73.144 28.315 73.2233 27.9323 73.382C27.559 73.5407 27.2463 73.746 26.9943 73.998C26.7423 74.25 26.5463 74.53 26.4063 74.838C26.2756 75.146 26.1916 75.454 26.1543 75.762C26.0983 76.2007 26.117 76.56 26.2103 76.84C26.313 77.12 26.4576 77.3533 26.6443 77.54C26.831 77.7173 27.055 77.862 27.3163 77.974C27.5776 78.0767 27.8436 78.1747 28.1143 78.268C28.385 78.352 28.651 78.4407 28.9123 78.534C29.1736 78.6273 29.4023 78.7487 29.5983 78.898C29.785 79.0473 29.925 79.2387 30.0183 79.472C30.121 79.7053 30.1443 80.004 30.0883 80.368C30.051 80.6387 29.967 80.8767 29.8363 81.082C29.7056 81.2873 29.5423 81.46 29.3463 81.6C29.1596 81.7307 28.9496 81.8333 28.7163 81.908C28.483 81.9733 28.245 82.006 28.0023 82.006C27.5823 82.006 27.2136 81.9407 26.8963 81.81C26.579 81.67 26.3083 81.5067 26.0843 81.32L26.2663 80.074H25.1603L24.9363 81.698ZM31.7758 81.894L31.6218 83H35.0098L35.1638 81.894H33.5678L34.0158 78.632H35.5418C36.4938 78.632 37.2545 78.3847 37.8238 77.89C38.4025 77.386 38.7525 76.7093 38.8738 75.86C38.9392 75.384 38.8832 74.978 38.7058 74.642C38.5285 74.306 38.2905 74.0307 37.9918 73.816C37.6838 73.6013 37.3432 73.4473 36.9698 73.354C36.5965 73.2513 36.2512 73.2 35.9338 73.2H32.9938L32.8398 74.306H33.4698L32.4058 81.894H31.7758ZM34.1838 77.512L34.6318 74.306H35.8638C36.1532 74.306 36.4192 74.348 36.6618 74.432C36.9045 74.516 37.1098 74.628 37.2778 74.768C37.4365 74.9173 37.5532 75.0853 37.6278 75.272C37.7118 75.4587 37.7398 75.6547 37.7118 75.86C37.6838 76.0373 37.6232 76.224 37.5298 76.42C37.4458 76.616 37.3152 76.7933 37.1378 76.952C36.9512 77.1107 36.7178 77.246 36.4378 77.358C36.1578 77.4607 35.8125 77.512 35.4018 77.512H34.1838ZM39.0083 81.894L38.8543 83H45.8683L46.1623 80.844H45.0563L44.9163 81.894H40.9543L41.4023 78.618H45.7283L45.8963 77.512H41.5703L42.0183 74.306H45.7843L45.6303 75.356H46.7363L47.0443 73.2H40.2263L40.0723 74.306H40.8563L39.7923 81.894H39.0083ZM54.3843 75.356H55.4903L55.7143 73.788C55.369 73.564 54.991 73.3913 54.5803 73.27C54.1696 73.1487 53.7263 73.088 53.2503 73.088C52.5596 73.088 51.8923 73.2233 51.2483 73.494C50.6043 73.7553 50.0256 74.11 49.5123 74.558C48.999 75.0153 48.565 75.552 48.2103 76.168C47.865 76.7747 47.6456 77.4233 47.5523 78.114C47.4496 78.8047 47.487 79.4533 47.6643 80.06C47.8416 80.6667 48.1263 81.194 48.5183 81.642C48.9103 82.0993 49.391 82.4587 49.9603 82.72C50.5296 82.9813 51.1596 83.112 51.8503 83.112C52.3263 83.112 52.7836 83.0513 53.2223 82.93C53.661 82.7993 54.0856 82.6267 54.4963 82.412L53.9923 81.488C53.675 81.656 53.3483 81.7867 53.0123 81.88C52.6856 81.964 52.3496 82.006 52.0043 82.006C51.4723 82.006 50.987 81.9033 50.5483 81.698C50.119 81.4927 49.755 81.2127 49.4563 80.858C49.1576 80.5127 48.9383 80.102 48.7983 79.626C48.6676 79.15 48.6396 78.646 48.7143 78.114C48.789 77.582 48.957 77.078 49.2183 76.602C49.489 76.126 49.825 75.706 50.2263 75.342C50.6183 74.9873 51.0616 74.7073 51.5563 74.502C52.051 74.2967 52.5643 74.194 53.0963 74.194C53.3483 74.194 53.591 74.222 53.8243 74.278C54.067 74.3247 54.2956 74.3993 54.5103 74.502L54.3843 75.356ZM57.6512 81.894L57.4972 83H60.8852L61.0392 81.894H60.0172L61.0812 74.306H63.2512L63.0972 75.356H64.2032L64.5112 73.2H56.7692L56.4612 75.356H57.5672L57.7212 74.306H59.9192L58.8552 81.894H57.6512ZM64.2739 81.894L64.1199 83H67.5079L67.6619 81.894H66.0659L66.5139 78.632H67.1019C67.2325 78.632 67.3305 78.632 67.3959 78.632C67.4705 78.632 67.5732 78.632 67.7039 78.632L69.1599 83H71.2039L71.3579 81.894H70.0419L68.9359 78.548C69.6265 78.3987 70.1772 78.0907 70.5879 77.624C71.0079 77.148 71.2692 76.56 71.3719 75.86C71.4372 75.384 71.3812 74.978 71.2039 74.642C71.0265 74.306 70.7885 74.0307 70.4899 73.816C70.1819 73.6013 69.8412 73.4473 69.4679 73.354C69.0945 73.2513 68.7492 73.2 68.4319 73.2H65.4919L65.3379 74.306H65.9679L64.9039 81.894H64.2739ZM66.6819 77.512L67.1299 74.306H68.3619C68.6512 74.306 68.9172 74.348 69.1599 74.432C69.4025 74.516 69.6079 74.628 69.7759 74.768C69.9345 74.9173 70.0512 75.0853 70.1259 75.272C70.2099 75.4587 70.2379 75.6547 70.2099 75.86C70.1819 76.0373 70.1212 76.224 70.0279 76.42C69.9439 76.616 69.8132 76.7933 69.6359 76.952C69.4492 77.1107 69.2159 77.246 68.9359 77.358C68.6559 77.4607 68.3105 77.512 67.8999 77.512H66.6819ZM73.5723 73.2L73.4183 74.306H74.4963L73.7123 79.836C73.6376 80.368 73.661 80.8393 73.7823 81.25C73.9036 81.6607 74.1043 82.0013 74.3843 82.272C74.6643 82.552 75.0096 82.762 75.4203 82.902C75.831 83.042 76.2883 83.112 76.7923 83.112C77.2963 83.112 77.7723 83.042 78.2203 82.902C78.6683 82.762 79.0696 82.552 79.4243 82.272C79.779 82.0013 80.073 81.6607 80.3063 81.25C80.549 80.8393 80.7076 80.368 80.7823 79.836L81.5663 74.306H82.6443L82.7983 73.2H79.4103L79.2563 74.306H80.4043L79.6343 79.794C79.5783 80.1487 79.471 80.466 79.3123 80.746C79.163 81.0167 78.9716 81.2453 78.7383 81.432C78.4956 81.6187 78.2203 81.7633 77.9123 81.866C77.6136 81.9593 77.2916 82.006 76.9463 82.006C76.601 82.006 76.2883 81.9593 76.0083 81.866C75.7376 81.7727 75.509 81.6373 75.3223 81.46C75.1356 81.2733 75.0003 81.04 74.9163 80.76C74.8416 80.48 74.8323 80.158 74.8883 79.794L75.6583 74.306H76.8063L76.9603 73.2H73.5723ZM82.3855 83H85.7735L85.9275 81.894H84.9195L85.6615 76.63C85.6708 76.5553 85.6802 76.448 85.6895 76.308C85.6988 76.1587 85.7035 76.0467 85.7035 75.972C85.7502 76.0653 85.7968 76.1633 85.8435 76.266C85.8995 76.3593 85.9695 76.4713 86.0535 76.602L88.9655 81.25L93.1795 76.616C93.2728 76.5133 93.3615 76.406 93.4455 76.294C93.5388 76.182 93.6275 76.0747 93.7115 75.972C93.6928 76.0467 93.6695 76.168 93.6415 76.336C93.6135 76.504 93.5948 76.6253 93.5855 76.7L92.8435 81.894H91.8355L91.6815 83H95.0695L95.2235 81.894H94.0055L95.0695 74.306H96.2875L96.4415 73.2H94.8735L89.2315 79.402L85.3255 73.2H83.7575L83.6035 74.306H84.8215L83.7575 81.894H82.5395L82.3855 83ZM39.2055 93.812C39.1175 94.404 39.1495 94.96 39.3015 95.48C39.4535 96 39.6975 96.452 40.0335 96.836C40.3695 97.228 40.7815 97.536 41.2695 97.76C41.7575 97.984 42.2975 98.096 42.8895 98.096C43.4735 98.096 44.0415 97.984 44.5935 97.76C45.1535 97.536 45.6575 97.228 46.1055 96.836C46.5455 96.452 46.9135 96 47.2095 95.48C47.5135 94.96 47.7095 94.404 47.7975 93.812C47.8775 93.228 47.8375 92.676 47.6775 92.156C47.5255 91.628 47.2815 91.168 46.9455 90.776C46.6095 90.384 46.1935 90.076 45.6975 89.852C45.2095 89.62 44.6735 89.504 44.0895 89.504C43.4975 89.504 42.9255 89.62 42.3735 89.852C41.8215 90.076 41.3255 90.384 40.8855 90.776C40.4375 91.168 40.0655 91.628 39.7695 92.156C39.4735 92.676 39.2855 93.228 39.2055 93.812ZM40.2015 93.812C40.2655 93.348 40.4095 92.916 40.6335 92.516C40.8655 92.108 41.1535 91.752 41.4975 91.448C41.8415 91.144 42.2255 90.904 42.6495 90.728C43.0735 90.552 43.5135 90.464 43.9695 90.464C44.4255 90.464 44.8375 90.552 45.2055 90.728C45.5815 90.904 45.9015 91.144 46.1655 91.448C46.4215 91.752 46.6055 92.108 46.7175 92.516C46.8375 92.916 46.8655 93.348 46.8015 93.812C46.7375 94.276 46.5895 94.712 46.3575 95.12C46.1255 95.52 45.8415 95.868 45.5055 96.164C45.1615 96.468 44.7775 96.708 44.3535 96.884C43.9295 97.06 43.4895 97.148 43.0335 97.148C42.5775 97.148 42.1615 97.06 41.7855 96.884C41.4095 96.708 41.0935 96.468 40.8375 96.164C40.5815 95.868 40.3935 95.52 40.2735 95.12C40.1615 94.712 40.1375 94.276 40.2015 93.812ZM43.9215 89H44.6295C44.9815 88.648 45.2455 88.384 45.4215 88.208C45.6055 88.024 45.8735 87.756 46.2255 87.404H45.2175C45.0015 87.668 44.7855 87.936 44.5695 88.208C44.3535 88.472 44.1375 88.736 43.9215 89ZM48.1711 97.052L48.0391 98H50.9431L51.0751 97.052H49.7071L50.0911 94.256H51.3991C52.2151 94.256 52.8671 94.044 53.3551 93.62C53.8511 93.188 54.1511 92.608 54.2551 91.88C54.3111 91.472 54.2631 91.124 54.1111 90.836C53.9591 90.548 53.7551 90.312 53.4991 90.128C53.2351 89.944 52.9431 89.812 52.6231 89.732C52.3031 89.644 52.0071 89.6 51.7351 89.6H49.2151L49.0831 90.548H49.6231L48.7111 97.052H48.1711ZM50.2351 93.296L50.6191 90.548H51.6751C51.9231 90.548 52.1511 90.584 52.3591 90.656C52.5671 90.728 52.7431 90.824 52.8871 90.944C53.0231 91.072 53.1231 91.216 53.1871 91.376C53.2591 91.536 53.2831 91.704 53.2591 91.88C53.2351 92.032 53.1831 92.192 53.1031 92.36C53.0311 92.528 52.9191 92.68 52.7671 92.816C52.6071 92.952 52.4071 93.068 52.1671 93.164C51.9271 93.252 51.6311 93.296 51.2791 93.296H50.2351ZM56.1704 97.052L56.0384 98H58.9424L59.0744 97.052H58.1984L59.1104 90.548H60.9704L60.8384 91.448H61.7864L62.0504 89.6H55.4144L55.1504 91.448H56.0984L56.2304 90.548H58.1144L57.2024 97.052H56.1704ZM61.8469 97.052L61.7149 98H64.6189L64.7509 97.052H63.7909L64.7029 90.548H65.6629L65.7949 89.6H62.8909L62.7589 90.548H63.7069L62.7949 97.052H61.8469ZM71.9092 91.448H72.8572L73.0492 90.104C72.7532 89.912 72.4292 89.764 72.0772 89.66C71.7252 89.556 71.3452 89.504 70.9372 89.504C70.3452 89.504 69.7732 89.62 69.2212 89.852C68.6692 90.076 68.1732 90.38 67.7332 90.764C67.2932 91.156 66.9212 91.616 66.6172 92.144C66.3212 92.664 66.1332 93.22 66.0532 93.812C65.9652 94.404 65.9972 94.96 66.1492 95.48C66.3012 96 66.5452 96.452 66.8812 96.836C67.2172 97.228 67.6292 97.536 68.1172 97.76C68.6052 97.984 69.1452 98.096 69.7372 98.096C70.1452 98.096 70.5372 98.044 70.9132 97.94C71.2892 97.828 71.6532 97.68 72.0052 97.496L71.5732 96.704C71.3012 96.848 71.0212 96.96 70.7332 97.04C70.4532 97.112 70.1652 97.148 69.8692 97.148C69.4132 97.148 68.9972 97.06 68.6212 96.884C68.2532 96.708 67.9412 96.468 67.6852 96.164C67.4292 95.868 67.2412 95.516 67.1212 95.108C67.0092 94.7 66.9852 94.268 67.0492 93.812C67.1132 93.356 67.2572 92.924 67.4812 92.516C67.7132 92.108 68.0012 91.748 68.3452 91.436C68.6812 91.132 69.0612 90.892 69.4852 90.716C69.9092 90.54 70.3492 90.452 70.8052 90.452C71.0212 90.452 71.2292 90.476 71.4292 90.524C71.6372 90.564 71.8332 90.628 72.0172 90.716L71.9092 91.448ZM72.9094 97.052L72.7774 98H75.4414L75.5734 97.052H74.8894L76.2214 94.676H78.8614C78.9734 95.076 79.0854 95.472 79.1974 95.864C79.3094 96.256 79.4214 96.652 79.5334 97.052H78.8614L78.7294 98H81.3934L81.5254 97.052H80.5414C80.1654 95.732 79.7934 94.428 79.4254 93.14C79.0574 91.844 78.6854 90.536 78.3094 89.216C77.5734 90.536 76.8374 91.844 76.1014 93.14C75.3654 94.428 74.6294 95.732 73.8934 97.052H72.9094ZM76.7734 93.728C76.9174 93.472 77.0854 93.164 77.2774 92.804C77.4694 92.444 77.6254 92.156 77.7454 91.94C77.7854 91.868 77.8134 91.82 77.8294 91.796C77.8454 91.764 77.9014 91.64 77.9974 91.424L78.0574 91.82L78.5974 93.728H76.7734Z" fill="black"/>
</svg>
